<?xml version="1.0" encoding="iso-8859-1"?>
<!-- Generator: Adobe Illustrator 19.1.0, SVG Export Plug-In . SVG Version: 6.00 Build 0)  -->
<svg version="1.1" id="Capa_1" xmlns="http://www.w3.org/2000/svg" xmlns:xlink="http://www.w3.org/1999/xlink" x="0px" y="0px"
	 viewBox="0 0 65 65" style="enable-background:new 0 0 65 65;" xml:space="preserve">
<g>
	<g id="group-13svg">
		<path id="path-1_3_" style="fill:#8B71B5;" d="M65,54.995c0,4.417-3.582,7.998-8,7.998H13c-4.419,0-8-3.581-8-7.998V15.004
			c0-4.417,3.581-7.998,8-7.998h44c4.418,0,8,3.581,8,7.998V54.995z"/>
		<path id="path-2_3_" style="fill:#EDC951;" d="M52.775,37.589c0,9.247-7.498,16.744-16.748,16.744
			c-9.249,0-16.748-7.497-16.748-16.744c0-9.248,7.499-16.744,16.748-16.744C45.277,20.845,52.775,28.341,52.775,37.589z"/>
		<path id="path-3_3_" d="M53.5,60.993h-44c-5.238,0-9.5-4.261-9.5-9.498v-39.99c0-5.237,4.262-9.498,9.5-9.498h44
			c5.238,0,9.5,4.261,9.5,9.498v39.99C63,56.732,58.738,60.993,53.5,60.993z M9.5,5.007c-3.584,0-6.5,2.915-6.5,6.498v39.99
			c0,3.584,2.916,6.499,6.5,6.499h44c3.584,0,6.5-2.915,6.5-6.499v-39.99c0-3.583-2.916-6.498-6.5-6.498H9.5z"/>
		<path id="path-4_3_" d="M32.027,52.833c-10.062,0-18.248-8.185-18.248-18.244s8.186-18.243,18.248-18.243
			c10.063,0,18.249,8.184,18.249,18.243S42.09,52.833,32.027,52.833z M32.027,19.345c-8.407,0-15.248,6.838-15.248,15.244
			c0,8.407,6.841,15.245,15.248,15.245c8.409,0,15.249-6.838,15.249-15.245C47.276,26.183,40.436,19.345,32.027,19.345z"/>
		<path id="path-5_3_" d="M31.5,46.497c-0.829,0-1.5-0.672-1.5-1.5V28.431c0-0.57,0.323-1.091,0.834-1.344
			c0.51-0.253,1.12-0.196,1.574,0.151l6.102,4.64c0.659,0.501,0.787,1.442,0.285,2.101c-0.501,0.659-1.443,0.787-2.102,0.285
			L33,31.455v13.542C33,45.825,32.329,46.497,31.5,46.497z"/>
		<path id="path-6_3_" d="M25.763,34.93c-0.434,0-0.865-0.187-1.162-0.549c-0.524-0.64-0.431-1.585,0.21-2.11l6.102-5
			c0.641-0.524,1.585-0.431,2.11,0.209c0.525,0.64,0.432,1.585-0.209,2.111l-6.102,4.999C26.434,34.819,26.097,34.93,25.763,34.93z"
			/>
	</g>
</g>
<g>
</g>
<g>
</g>
<g>
</g>
<g>
</g>
<g>
</g>
<g>
</g>
<g>
</g>
<g>
</g>
<g>
</g>
<g>
</g>
<g>
</g>
<g>
</g>
<g>
</g>
<g>
</g>
<g>
</g>
</svg>
